PathFileType	4	(X/Y/Z)	walk-thru1-2-TP.trc
DataRate	CameraRate	NumFrames	NumMarkers	Units	OrigDataRate	OrigDataStartFrame	OrigNumFrames
120.00	120.00	       4	60	mm	120.00	1	       441
Frame#	Time	Top.Head			Front.Head			Rear.Head			Jaw			C7			R.Clavicle			L.Clavicle			R.Shoulder			L.Shoulder			R.Scapula			L.Scapula			R.Scap.Inf			R.Biceps.Lateral			R.Elbow			R.Elbow.Medial			R.Forearm			R.Ulna			R.Radius			R.Wrist			R.Thumb.M1			R.Thumb.M2			R.Thumb.M3			R.Finger3.M1			R.Finger3.M2			R.Finger3.M3			L.Biceps.Lateral			L.Elbow			L.Elbow.Medial			L.Forearm			L.Ulna			L.Radius			L.Wrist			L.Thumb.M1			L.Thumb.M2			L.Thumb.M3			L.Finger3.M1			L.Finger3.M2			L.Finger3.M3			V.Sacral			R.ASIS			L.ASIS			R.Thigh			R.Thigh.Front			R.Knee			R.Knee.Medial			R.Shank			R.Ankle			R.Ankle.Medial			R.Heel			R.Toe			R.MedFoot			L.Thigh			L.Knee			L.Knee.Medial			L.Shank			L.Ankle			L.Ankle.Medial			L.Heel			L.Toe			L.MedFoot			V_mid_ASIS			V_R_Knee_JC			V_L_Knee_JC			V_R_Elbow_JC			V_L_Elbow_JC			V_R_Ankle_JC			V_L_Ankle_JC			V_R_Wrist_JC			V_L_Wrist_JC			V_R_ScaTrpz_1stMC_JC			V_R_1stMC_1stPP_JC			V_R_1stPP_1stDP_JC			V_R_LunCap_3rdMC_JC			V_R_3rdMC_3rdPP_JC			V_R_3rdPP_3rdMP_JC			V_R_3rdMP_3rdDP_JC			V_L_ScaTrpz_1stMC_JC			V_L_1stMC_1stPP_JC			V_L_1stPP_1stDP_JC			V_L_LunCap_3rdMC_JC			V_L_3rdMC_3rdPP_JC			V_L_3rdPP_3rdMP_JC			V_L_3rdMP_3rdPP_JC			V_ROOT_JC			V_R_Hip_JC			V_L_Hip_JC			V_R_GlenHum_JC			V_L_GlenHum_JC			V_ForeHead_Ctr			V_Vertex			V_Sagit_Lambdoid_Suture			V_R_FrontoTemp			V_L_FrontoTemporal			V_R_ParietalOccip			V_L_ParietalOcciptal			V_R_Temporal			V_L_Temporal			V_mid_FrontRearHead			V_mid_RLGlenHumCtrs			V_C7_vert			V_C1_vert			V_Mid_Hip			
		X1	Y1	Z1	X2	Y2	Z2	X3	Y3	Z3	X4	Y4	Z4	X5	Y5	Z5	X6	Y6	Z6	X7	Y7	Z7	X8	Y8	Z8	X9	Y9	Z9	X10	Y10	Z10	X11	Y11	Z11	X12	Y12	Z12	X13	Y13	Z13	X14	Y14	Z14	X15	Y15	Z15	X16	Y16	Z16	X17	Y17	Z17	X18	Y18	Z18	X19	Y19	Z19	X20	Y20	Z20	X21	Y21	Z21	X22	Y22	Z22	X23	Y23	Z23	X24	Y24	Z24	X25	Y25	Z25	X26	Y26	Z26	X27	Y27	Z27	X28	Y28	Z28	X29	Y29	Z29	X30	Y30	Z30	X31	Y31	Z31	X32	Y32	Z32	X33	Y33	Z33	X34	Y34	Z34	X35	Y35	Z35	X36	Y36	Z36	X37	Y37	Z37	X38	Y38	Z38	X39	Y39	Z39	X40	Y40	Z40	X41	Y41	Z41	X42	Y42	Z42	X43	Y43	Z43	X44	Y44	Z44	X45	Y45	Z45	X46	Y46	Z46	X47	Y47	Z47	X48	Y48	Z48	X49	Y49	Z49	X50	Y50	Z50	X51	Y51	Z51	X52	Y52	Z52	X53	Y53	Z53	X54	Y54	Z54	X55	Y55	Z55	X56	Y56	Z56	X57	Y57	Z57	X58	Y58	Z58	X59	Y59	Z59	X60	Y60	Z60	

1	0.000	-1213.62256	84.51563	1563.86963	-1115.22241	73.50688	1463.26550	-1327.80432	86.63452	1485.00232	-1148.04749	57.96259	1323.27405	-1347.04492	69.74066	1376.61792	-1276.34619	-46.89297	1286.43591	-1244.75195	166.64581	1290.81799	-1335.72803	-119.44009	1285.69080	-1286.31104	262.78009	1292.27710	-1405.73718	-10.56200	1304.11121	-1389.33813	170.09447	1300.89685	-1453.48328	10.41317	1223.30847	-1333.77759	-174.51257	1145.15210	-1382.14087	-194.18463	988.62146	-1405.82935	-121.24446	973.35614	-1306.94360	-193.51894	909.52826	-1343.02185	-217.55869	825.80328	-1273.42285	-178.19308	777.24646	-1281.94629	-218.24333	743.36896	-1253.10950	-180.43414	724.09167	-1241.71143	-162.81383	688.49933	-1237.90356	-151.19910	646.36194	-1267.72083	-230.54808	666.25415	-1269.92883	-209.16231	616.64984	-1285.18408	-186.63625	583.81097	-1296.71912	325.30649	1145.95447	-1345.16736	342.33350	1003.27710	-1375.48218	267.57333	995.53217	-1262.77039	315.82025	938.18884	-1271.79834	354.04105	845.91260	-1225.46277	292.52731	805.60590	-1212.56726	339.17578	779.25153	-1192.85840	296.81061	769.84613	-1180.85413	274.17154	733.86749	-1176.22644	262.69305	683.36401	-1185.23254	336.87384	694.01495	-1183.38110	321.25861	655.35052	-1195.50000	289.04425	624.38629	-1473.16174	66.59813	915.49402	-1281.05042	-89.41274	974.56146	-1282.55408	230.01768	954.48413	-1222.16626	-138.99275	598.07520	-1119.11523	-80.97035	522.80426	-1165.99561	-114.36622	460.47372	-1144.11194	-2.98234	457.45074	-1218.91736	-58.74374	293.57678	-1371.10120	-58.44798	123.34005	-1331.36108	26.80157	131.12344	-1422.10925	10.75698	112.02549	-1249.66479	-58.71104	56.22356	-1278.60803	-10.15355	91.58553	-1323.09656	233.48784	576.84308	-1322.20056	197.37753	440.25790	-1305.43958	79.22799	427.97946	-1335.66882	134.07397	248.66356	-1419.25867	150.34811	63.72835	-1404.90955	61.79634	83.59151	-1479.50073	101.71066	42.37068	-1272.45129	107.03130	38.40084	-1332.31213	75.89409	60.48769																																																																																																																															
2	0.008	-1210.46704	85.12553	1563.91516	-1109.06799	73.38667	1463.77283	-1322.27026	86.53883	1484.02356	-1142.90869	58.99195	1321.93201	-1342.08643	70.36103	1376.94202	-1272.82800	-45.69072	1285.03455	-1239.75562	166.71521	1289.80493	-1330.26367	-118.64860	1285.16895	-1279.84436	262.24377	1291.97766	-1399.66809	-9.94097	1302.71497	-1383.69824	170.96130	1300.73645	-1447.84290	10.75348	1223.26978	-1328.94788	-175.08559	1143.56763	-1377.82642	-194.03679	987.39087	-1399.67249	-119.69028	972.46307	-1302.39429	-192.96352	908.54865	-1336.50244	-216.06929	824.50891	-1267.89099	-178.93343	776.46680	-1279.83643	-217.17271	741.98792	-1249.27490	-180.52794	722.82330	-1239.48145	-164.50441	688.46887	-1235.04761	-150.27625	646.62451	-1265.42798	-230.87271	664.87842	-1267.34644	-209.45381	615.43170	-1280.20691	-187.91933	582.51770	-1290.97327	325.52179	1145.64612	-1339.72742	342.56003	1003.12189	-1369.96741	267.97195	994.98657	-1257.04077	317.50763	937.70465	-1267.25342	354.02036	845.55609	-1217.97803	292.24609	805.44867	-1208.20850	339.92276	778.10388	-1187.50073	297.08148	769.40387	-1175.94189	275.38345	732.01044	-1171.60217	263.50952	681.38837	-1180.26514	337.81918	693.31439	-1178.77600	323.34061	654.23798	-1192.40967	288.06143	623.28662	-1468.27563	65.52204	914.98785	-1277.70764	-88.89984	974.88660	-1279.70337	230.20490	954.94165	-1209.04065	-142.65207	601.04858	-1110.40063	-78.64007	524.20319	-1157.69775	-113.68552	461.20270	-1136.19226	-2.06094	458.89087	-1207.31201	-58.03572	292.73434	-1351.20264	-59.04631	117.21240	-1313.68726	25.54745	126.06465	-1406.73901	7.06282	105.49958	-1226.95715	-58.87609	55.55424	-1258.14734	-11.99113	88.51853	-1321.10657	233.07823	577.27661	-1319.71130	198.61458	440.76245	-1305.17407	78.44710	428.15002	-1334.67554	135.16824	247.94659	-1418.92627	150.09541	63.98038	-1400.86328	64.31732	85.34079	-1479.41272	101.36557	42.58333	-1272.45129	107.03130	38.40084	-1331.94849	75.99627	60.28019																																																																																																																															
3	0.017	-1203.79883	84.28222	1563.12244	-1104.93433	74.12153	1462.97058	-1316.79346	87.41704	1483.41504	-1136.80750	58.03196	1321.72668	-1335.67859	71.09224	1375.73206	-1267.27136	-46.29862	1284.73022	-1233.02087	165.91907	1288.84875	-1325.96362	-118.80872	1284.53076	-1275.35620	262.04398	1291.60022	-1394.72803	-9.39760	1302.43274	-1378.25183	171.01198	1300.04785	-1442.68909	11.42783	1222.27856	-1322.32727	-173.41844	1143.56250	-1372.90430	-193.76677	987.13300	-1394.77039	-118.91261	972.30304	-1299.16492	-193.77531	907.28662	-1333.03345	-215.50761	824.12543	-1266.05005	-177.66602	774.08112	-1274.15369	-217.67783	741.58594	-1242.57715	-179.48682	720.78186	-1238.06934	-165.26198	687.24969	-1232.10999	-151.38626	646.79498	-1261.96130	-231.01347	664.50568	-1264.77319	-209.58707	615.06976	-1278.32178	-188.83766	582.19281	-1286.58582	324.95468	1145.28845	-1334.83289	343.40714	1002.32709	-1364.59631	267.94742	993.85278	-1252.47559	317.48309	937.38971	-1262.69104	354.33133	844.17560	-1214.95068	293.11349	804.02356	-1203.74744	341.46277	776.05334	-1182.26172	298.37000	768.20471	-1170.73718	275.04276	731.62891	-1166.95471	264.42130	680.67798	-1174.63220	338.03412	691.64764	-1173.27478	322.15875	653.52344	-1187.18457	287.20346	622.36511	-1462.81836	65.37897	913.61835	-1270.36218	-89.12260	972.91180	-1275.55005	229.30267	954.18427	-1204.15503	-141.32698	600.80865	-1104.48999	-77.26152	525.17670	-1150.09119	-112.68586	461.42325	-1128.62024	-0.67780	460.10025	-1192.69836	-59.70643	292.43124	-1331.19189	-59.14552	111.22117	-1296.06604	26.25366	123.34568	-1383.60547	9.15251	97.06102	-1205.21497	-61.10723	53.82432	-1237.07361	-12.14624	87.36003	-1317.15039	234.15932	575.78925	-1317.50854	198.58109	439.17200	-1303.86951	78.45869	427.57950	-1331.32263	134.44933	247.26265	-1418.92627	150.09541	63.98038	-1405.97461	59.15760	86.44937	-1479.09619	101.31904	42.81990	-1272.22485	106.93274	37.89564	-1332.17041	76.47961	60.65451																																																																																																																															
4	0.025	-1197.93213	87.14689	1561.72095	-1098.17261	74.49581	1460.87341	-1311.09705	86.71667	1483.22888	-1132.18152	58.65779	1320.51929	-1330.18530	71.24300	1375.19104	-1260.82849	-46.08707	1283.74622	-1227.50952	167.49332	1287.50793	-1320.38464	-118.08965	1283.91357	-1267.98206	263.44534	1289.20520	-1389.21472	-9.38885	1301.53271	-1373.07605	171.65916	1299.30713	-1437.29358	12.06135	1221.57715	-1317.82886	-174.16928	1143.01404	-1367.79346	-192.38266	986.49475	-1390.92896	-119.08558	972.13171	-1294.62671	-193.11034	906.61169	-1330.23438	-215.62944	823.60040	-1263.34314	-177.77547	773.83246	-1274.18506	-216.94348	740.24414	-1242.05115	-180.71712	720.33905	-1234.73987	-163.73703	686.98816	-1227.85742	-153.94861	645.44067	-1258.97534	-231.36632	663.60236	-1261.68298	-209.61530	614.17401	-1273.72021	-188.63583	581.50348	-1280.41785	327.03946	1144.52478	-1329.47998	342.90811	1000.83405	-1359.14697	267.95200	993.46887	-1246.97302	318.67557	936.15222	-1256.00208	355.10837	843.27148	-1207.52039	293.73093	802.77600	-1199.02173	339.65863	776.18018	-1176.68494	298.34161	767.10541	-1166.00854	274.98721	728.99225	-1161.90552	263.58075	680.13940	-1171.00000	338.71030	690.18713	-1168.63586	322.63928	652.67517	-1181.97058	288.32635	620.62115	-1457.00024	65.57883	913.24384	-1266.94873	-87.65100	973.07202	-1269.95496	231.65002	953.23022	-1197.84595	-140.50287	600.42596	-1096.31006	-76.67294	526.70337	-1141.11304	-111.78487	461.30252	-1120.38440	0.78771	460.78244	-1181.34912	-58.42626	292.04773	-1311.74011	-59.34340	106.50093	-1275.69214	25.18144	118.93375	-1366.36633	5.03284	90.98088	-1182.32178	-60.90486	53.80613	-1217.93518	-12.18784	86.26835	-1312.78760	234.12027	575.43854	-1315.12048	199.20642	439.46512	-1299.18323	79.62405	427.25638	-1330.05139	134.12032	246.98923	-1418.65417	150.17371	64.05001	-1406.59338	61.26402	84.55671	-1478.78931	101.58530	43.39532	-1272.22485	106.93274	37.89564	-1331.66699	76.45200	61.22393																																																																																																																															
